<?xml version="1.0" encoding="iso-8859-1"?>
<!-- Generator: Adobe Illustrator 16.0.0, SVG Export Plug-In . SVG Version: 6.00 Build 0)  -->
<!DOCTYPE svg PUBLIC "-//W3C//DTD SVG 1.1//EN" "http://www.w3.org/Graphics/SVG/1.1/DTD/svg11.dtd">
<svg xmlns="http://www.w3.org/2000/svg" xmlns:xlink="http://www.w3.org/1999/xlink" version="1.1" id="Capa_1" x="0px" y="0px" width="512px" height="512px" viewBox="0 0 423.882 423.882" style="enable-background:new 0 0 423.882 423.882;" xml:space="preserve">
<g>
	<path d="M337.71,160.812V44.542h-3.104V11.207C334.605,5.023,329.588,0,323.399,0H97.378c-6.186,0-11.206,5.023-11.206,11.207   v401.47c0,6.186,5.02,11.206,11.206,11.206h226.021c6.188,0,11.206-5.021,11.206-11.206v-62.754h3.104v-36.421h-3.104V160.812   H337.71z M190.052,12.676h43.776v5.603h-43.776V12.676z M227.732,409.721c0,0.919-0.745,1.657-1.652,1.657h-24.068   c-0.914,0-1.66-0.738-1.66-1.657v-15.886c0-0.552,0.28-1.066,0.729-1.378l12.042-8.092c0.567-0.368,1.288-0.368,1.855,0   l12.032,8.092c0.547,0.36,0.817,1,0.723,1.625V409.721L227.732,409.721z M318.797,358.186c0,6.188-5.016,11.206-11.206,11.206   H113.293c-6.185,0-11.207-5.018-11.207-11.206V40.362c0-6.186,5.021-11.207,11.207-11.207h194.297   c6.19,0,11.206,5.021,11.206,11.207V358.186z" fill="#FFFFFF"/>
</g>
<g>
</g>
<g>
</g>
<g>
</g>
<g>
</g>
<g>
</g>
<g>
</g>
<g>
</g>
<g>
</g>
<g>
</g>
<g>
</g>
<g>
</g>
<g>
</g>
<g>
</g>
<g>
</g>
<g>
</g>
</svg>
