<?xml version="1.0" encoding="utf-8"?>
<!-- Generator: Adobe Illustrator 16.2.0, SVG Export Plug-In . SVG Version: 6.00 Build 0)  -->
<!DOCTYPE svg PUBLIC "-//W3C//DTD SVG 1.1//EN" "http://www.w3.org/Graphics/SVG/1.1/DTD/svg11.dtd">
<svg version="1.1" id="Layer_1" xmlns="http://www.w3.org/2000/svg" xmlns:xlink="http://www.w3.org/1999/xlink" x="0px" y="0px"
	 width="396.555px" height="278.529px" viewBox="21.345 593.571 396.555 278.529"
	 enable-background="new 21.345 593.571 396.555 278.529" xml:space="preserve">
<title>home</title>
<g enable-background="new    ">
	<path fill="#FFFFFF" d="M414.76,725.198c2.093,2.093,3.14,4.64,3.14,7.638c0,3.002-1.047,5.546-3.14,7.639L286.063,868.962
		c-0.978,1.118-2.128,1.92-3.453,2.406c-1.328,0.491-2.688,0.732-4.081,0.732c-1.396,0-2.756-0.241-4.081-0.732
		c-1.327-0.486-2.478-1.288-3.453-2.406c-2.093-2.093-3.139-4.604-3.139-7.533s1.046-5.441,3.139-7.533l110.282-110.282H32.227
		c-3.07,0-5.65-1.046-7.743-3.139s-3.139-4.604-3.139-7.534c0-3.066,1.046-5.649,3.139-7.742s4.672-3.139,7.743-3.139h349.052
		L270.996,611.777c-2.093-2.093-3.139-4.604-3.139-7.533s1.046-5.441,3.139-7.534c2.093-2.092,4.604-3.139,7.534-3.139
		s5.44,1.047,7.533,3.139L414.76,725.198z"/>
</g>
</svg>
