<?xml version="1.0" encoding="utf-8"?>
<!-- Generator: Adobe Illustrator 16.2.0, SVG Export Plug-In . SVG Version: 6.00 Build 0)  -->
<!DOCTYPE svg PUBLIC "-//W3C//DTD SVG 1.1//EN" "http://www.w3.org/Graphics/SVG/1.1/DTD/svg11.dtd">
<svg version="1.1" id="Layer_1" xmlns="http://www.w3.org/2000/svg" xmlns:xlink="http://www.w3.org/1999/xlink" x="0px" y="0px"
	 width="100px" height="100px" viewBox="0 0 100 100" enable-background="new 0 0 100 100" xml:space="preserve">
<title>home</title>
<g enable-background="new    ">
	<path fill="#F4CA22" d="M98.845,55.781c0.448,0.514,0.656,1.106,0.625,1.779c-0.032,0.673-0.306,1.234-0.817,1.683
		c-0.514,0.481-1.106,0.697-1.779,0.649S95.639,59.58,95.19,59.1L84.709,47.512v39.475c0,2.02-0.722,3.75-2.164,5.192
		s-3.19,2.164-5.241,2.164H23.165c-2.052,0-3.798-0.722-5.241-2.164c-1.443-1.442-2.164-3.173-2.164-5.192V47.512L5.278,59.1
		c-0.225,0.257-0.498,0.456-0.817,0.601c-0.321,0.145-0.657,0.217-1.01,0.217c-0.289,0-0.577-0.056-0.865-0.169
		c-0.289-0.111-0.545-0.28-0.77-0.505c-0.513-0.448-0.786-1.01-0.817-1.683s0.176-1.266,0.625-1.779L45.089,7.749
		c0.673-0.77,1.45-1.346,2.332-1.731c0.881-0.385,1.819-0.577,2.813-0.577c0.993,0,1.931,0.192,2.813,0.577s1.659,0.961,2.332,1.731
		L98.845,55.781z M79.756,86.986V42.079L51.725,11.018c-0.225-0.224-0.457-0.392-0.697-0.505c-0.24-0.112-0.504-0.168-0.793-0.168
		c-0.289,0-0.553,0.056-0.793,0.168c-0.24,0.113-0.473,0.281-0.697,0.505L20.712,42.079v44.908c0,0.673,0.24,1.25,0.721,1.73
		c0.481,0.481,1.058,0.722,1.731,0.722h12.309V67.273c0-2.02,0.721-3.751,2.164-5.193c1.443-1.442,3.174-2.163,5.193-2.163h14.809
		c2.02,0,3.75,0.721,5.193,2.163c1.442,1.442,2.163,3.174,2.163,5.193v22.165h12.309c0.674,0,1.25-0.24,1.731-0.722
		C79.516,88.236,79.756,87.659,79.756,86.986z M60.091,89.438V67.273c0-0.674-0.24-1.251-0.721-1.731
		c-0.481-0.48-1.059-0.721-1.731-0.721H42.83c-0.673,0-1.25,0.24-1.731,0.721c-0.48,0.48-0.721,1.058-0.721,1.731v22.165H60.091z"/>
</g>
</svg>
