<?xml version="1.0" encoding="utf-8"?>
<!-- Generator: Adobe Illustrator 16.2.0, SVG Export Plug-In . SVG Version: 6.00 Build 0)  -->
<!DOCTYPE svg PUBLIC "-//W3C//DTD SVG 1.1//EN" "http://www.w3.org/Graphics/SVG/1.1/DTD/svg11.dtd">
<svg version="1.1" id="Layer_1" xmlns="http://www.w3.org/2000/svg" xmlns:xlink="http://www.w3.org/1999/xlink" x="0px" y="0px"
	 width="100px" height="100px" viewBox="0 0 100 100" enable-background="new 0 0 100 100" xml:space="preserve">
<title>mail</title>
<g enable-background="new    ">
	<path fill="#F4CA22" d="M92.176,21.621c2.166,0,4.014,0.763,5.539,2.289c1.526,1.52,2.285,3.351,2.285,5.486v46.853
		c0,2.17-0.759,4.016-2.285,5.537c-1.525,1.525-3.373,2.288-5.539,2.288H8.938c-2.167,0-4.013-0.763-5.538-2.288
		c-1.524-1.521-2.287-3.367-2.287-5.537V29.396c0-2.135,0.763-3.966,2.287-5.486c1.524-1.526,3.37-2.289,5.538-2.289H92.176z
		 M92.176,78.837c0.711,0,1.321-0.249,1.828-0.758c0.51-0.511,0.763-1.123,0.763-1.83V31.68L56.301,57.292
		c-0.782,0.545-1.678,0.952-2.693,1.22c-1.018,0.272-2.033,0.408-3.051,0.408c-1.049,0-2.076-0.136-3.074-0.408
		c-1-0.268-1.906-0.675-2.718-1.22L6.296,31.68v44.569c0,0.707,0.254,1.319,0.762,1.83c0.508,0.509,1.135,0.758,1.88,0.758H92.176z
		 M92.176,26.803H8.938c-0.101,0-0.185,0.011-0.253,0.027c-0.068,0.016-0.136,0.021-0.203,0.021L47.66,52.976
		c0.746,0.508,1.703,0.763,2.872,0.763c1.168,0,2.143-0.255,2.922-0.763l39.18-26.124c-0.069,0-0.145-0.005-0.229-0.021
		C92.321,26.814,92.243,26.803,92.176,26.803z"/>
</g>
</svg>
