<svg id="Layer_1" data-name="Layer 1" xmlns="http://www.w3.org/2000/svg" viewBox="0 0 27.99 28"><defs><style>.cls-1{fill:#f6cb27;}</style></defs><title>phone</title><path class="cls-1" d="M42.84,45.6a16.19,16.19,0,0,1-1.94-.39,18.18,18.18,0,0,1-2-.65q-1-.39-2-.91T35,42.59q-.93-.58-1.83-1.25t-1.78-1.42q-.88-.75-1.7-1.56t-1.56-1.7q-.75-.87-1.42-1.78T25.5,33q-.58-.94-1.06-1.87t-.91-2a18.63,18.63,0,0,1-.65-2,17,17,0,0,1-.4-1.94,13.3,13.3,0,0,1-.14-1.89,3,3,0,0,1,.25-1.18,5.91,5.91,0,0,1,.59-1.07,7.9,7.9,0,0,1,.7-.88q.36-.39.61-.61a8.33,8.33,0,0,1,.78-.66,9.18,9.18,0,0,1,.9-.59,6,6,0,0,1,.92-.44,2.44,2.44,0,0,1,.85-.17,1.81,1.81,0,0,1,.86.27,5.8,5.8,0,0,1,1.08.83q.44.41.93,1t1,1.2l.55.73q.4.54.81,1.21a13.13,13.13,0,0,1,.74,1.35,2.85,2.85,0,0,1,.32,1.16,1.71,1.71,0,0,1-.75,1.37A18.72,18.72,0,0,1,31.79,28l-.71.44a7.09,7.09,0,0,0-.63.44,2.27,2.27,0,0,0-.38.36.47.47,0,0,0-.09.15,12,12,0,0,0,1.45,2.57,21.07,21.07,0,0,0,4.68,4.68,12.43,12.43,0,0,0,2.57,1.46l.15-.1a2,2,0,0,0,.36-.37,7.16,7.16,0,0,0,.44-.63l.46-.72a16.91,16.91,0,0,1,1.16-1.69,1.72,1.72,0,0,1,1.38-.75,2.85,2.85,0,0,1,1.16.32,12.57,12.57,0,0,1,1.35.74q.66.42,1.2.81l.75.55q.64.51,1.2,1a12.77,12.77,0,0,1,1,.94,6.24,6.24,0,0,1,.81,1.07,1.79,1.79,0,0,1,.27.87,2.47,2.47,0,0,1-.17.85,6,6,0,0,1-.44.92,9.24,9.24,0,0,1-.59.9q-.33.44-.64.78t-.61.61a8.3,8.3,0,0,1-.89.71,5.62,5.62,0,0,1-1.08.59,3.09,3.09,0,0,1-1.18.24A14,14,0,0,1,42.84,45.6ZM27,19.49a7.34,7.34,0,0,0-1.52,1.12,7.15,7.15,0,0,0-1.23,1.46,2.52,2.52,0,0,0-.45,1.26,15.56,15.56,0,0,0,2,7.25,28,28,0,0,0,5,6.78,27.79,27.79,0,0,0,6.77,5,15.52,15.52,0,0,0,7.25,2A2.51,2.51,0,0,0,46,43.88a7.07,7.07,0,0,0,1.44-1.24,7.3,7.3,0,0,0,1.12-1.52,3,3,0,0,0,.37-1,3.81,3.81,0,0,0-.66-.94,14.06,14.06,0,0,0-2.14-1.91q-.64-.51-1.22-.89t-1-.64a7,7,0,0,0-.78-.39,2,2,0,0,0-.46-.14l-.14.1a1.89,1.89,0,0,0-.36.38c-.14.17-.28.37-.42.6l-.44.7a17.81,17.81,0,0,1-1.19,1.72,1.76,1.76,0,0,1-1.41.76l-.26,0a1,1,0,0,1-.25-.08,13.29,13.29,0,0,1-2.83-1.59,22.38,22.38,0,0,1-5.08-5.08,13.8,13.8,0,0,1-1.59-2.82,1.7,1.7,0,0,1-.05-.83,2,2,0,0,1,.72-1.1,7.1,7.1,0,0,1,.8-.6l.92-.59.68-.42q.34-.22.62-.42a2.14,2.14,0,0,0,.38-.37l.08-.14A1.41,1.41,0,0,0,32.7,25a8.13,8.13,0,0,0-.4-.78q-.26-.46-.64-1t-.87-1.23a15.45,15.45,0,0,0-1.91-2.13,3.13,3.13,0,0,0-.94-.66A2.57,2.57,0,0,0,27,19.49Z" transform="translate(-22.35 -17.73)"/></svg>