<svg id="Layer_1" data-name="Layer 1" xmlns="http://www.w3.org/2000/svg" viewBox="0 0 73 64"><defs><style>.cls-1{fill:#fff;stroke:#fff;stroke-miterlimit:10;}</style></defs><title>share</title><path class="cls-1" d="M42.64,42.5a7.22,7.22,0,0,0-1,1.25L29,36.08a7.27,7.27,0,0,0,0-5.41L41.64,23A7.35,7.35,0,1,0,41,21.73L28.31,29.37a7.32,7.32,0,1,0,0,8L41,45.07a7.32,7.32,0,1,0,1.66-2.56Zm5.18-29.23A5.86,5.86,0,1,1,42,19.13a5.86,5.86,0,0,1,5.86-5.86Zm-25.63,26A5.86,5.86,0,1,1,28,33.37a5.86,5.86,0,0,1-5.86,5.86ZM52,51.82a5.86,5.86,0,1,1,1.72-4.14A5.86,5.86,0,0,1,52,51.82Zm0,0"/></svg>